<?xml version="1.0" standalone="no"?>
<!DOCTYPE svg PUBLIC "-//W3C//DTD SVG 20010904//EN"
 "http://www.w3.org/TR/2001/REC-SVG-20010904/DTD/svg10.dtd">
<svg version="1.0" xmlns="http://www.w3.org/2000/svg"
 width="1280.000000pt" height="752.000000pt" viewBox="0 0 1280.000000 752.000000"
 preserveAspectRatio="xMidYMid meet">
<metadata>
Created by potrace 1.15, written by Peter Selinger 2001-2017
</metadata>
<g transform="translate(0.000000,752.000000) scale(0.100000,-0.100000)"
fill="#000000" stroke="none">
<path d="M3514 7490 c-142 -71 -299 -266 -320 -398 l-7 -42 -241 -2 c-789 -5
-1310 23 -2031 108 -116 13 -225 27 -244 31 -29 5 -33 3 -28 -10 3 -9 12 -171
18 -359 14 -375 3 -940 -26 -1338 -60 -839 -200 -1748 -370 -2415 -87 -340
-100 -483 -91 -990 3 -203 9 -400 12 -437 l7 -67 -59 -3 c-58 -3 -58 -3 -66
-38 -22 -104 -72 -924 -67 -1107 l4 -125 35 -29 c51 -43 173 -103 269 -133
165 -52 454 -91 876 -118 249 -16 1227 -16 1755 1 479 15 1797 58 2175 71 160
6 785 14 1390 20 1379 11 1744 20 2375 61 540 34 886 72 1320 145 1005 169
1964 415 2355 604 218 105 240 141 239 380 -1 196 -42 449 -111 680 -33 112
-57 158 -140 271 -39 52 -77 108 -87 126 -21 41 -43 54 -75 42 -22 -9 -29 -5
-65 38 -136 162 -254 223 -502 260 -156 23 -705 25 -964 3 -236 -20 -245 -19
-402 23 l-137 38 -83 82 c-134 132 -257 181 -453 181 -119 0 -210 -19 -276
-57 -36 -21 -37 -21 -110 -3 -69 16 -77 21 -114 68 -47 59 -134 127 -208 162
-47 22 -185 62 -302 87 -109 23 -182 1 -201 -58 0 -2 -53 15 -117 36 -96 32
-126 48 -177 90 -34 28 -74 58 -91 66 -24 13 -29 22 -29 50 0 74 -112 151
-285 195 -100 26 -135 25 -164 -1 -18 -17 -22 -30 -19 -64 l3 -42 -35 15 c-19
8 -89 40 -155 72 l-120 58 0 57 c0 56 -1 58 -48 100 -36 33 -78 56 -177 95
-137 54 -167 56 -194 18 -14 -19 -17 -18 -93 33 -43 29 -95 65 -116 81 l-37
30 20 25 c11 14 20 35 20 46 0 68 -108 188 -223 246 l-62 31 -58 -16 -58 -17
-40 39 c-47 45 -148 164 -236 278 l-62 80 41 38 c38 35 40 40 34 79 -13 84
-105 215 -194 280 -51 37 -61 40 -102 36 -25 -3 -54 -8 -66 -12 -18 -6 -33 11
-105 109 -73 101 -84 122 -86 161 -5 118 -185 361 -282 382 -19 4 -45 32 -96
106 -38 55 -113 159 -167 231 l-96 131 46 7 c84 13 92 56 32 174 -69 137 -178
254 -237 254 -13 0 -43 -5 -66 -11 -40 -10 -46 -8 -97 24 -30 18 -98 76 -151
128 -53 52 -120 108 -150 126 l-54 31 -99 -10 c-86 -10 -99 -9 -107 4 -5 9
-41 57 -81 107 -40 51 -94 122 -121 159 -60 85 -96 118 -144 131 -59 17 -85
13 -149 -19z"/>
</g>
</svg>
